<?xml version="1.0" encoding="UTF-8"?>
<svg version="1.1" xmlns="http://www.w3.org/2000/svg" width="800" height="800">
<path d="M0 0 C0.72953384 -0.00570007 1.45906769 -0.01140015 2.21070862 -0.01727295 C3.7634231 -0.02674482 5.31615787 -0.03326557 6.86889648 -0.03710938 C9.21310382 -0.04670793 11.55639341 -0.07766253 13.90039062 -0.109375 C33.64754628 -0.25210613 33.64754628 -0.25210613 40.37890625 6.328125 C43.35759045 10.33919406 44.20184563 14.25373294 43.81640625 19.203125 C42.34556867 23.92528775 40.56157359 26.97453246 36.81640625 30.203125 C37.39390625 30.43 37.97140625 30.656875 38.56640625 30.890625 C42.61532108 33.25249199 44.46235346 35.97574198 45.75390625 40.453125 C45.83321067 45.2113902 44.95795749 48.95296947 42.81640625 53.203125 C38.67572618 57.45277033 34.37393717 59.29112302 28.48510742 59.43017578 C26.77649722 59.4298612 25.06786525 59.41868507 23.359375 59.3984375 C22.4564119 59.3956076 21.55344879 59.39277771 20.62312317 59.38986206 C17.74991391 59.37870107 14.8770207 59.35360397 12.00390625 59.328125 C10.05143681 59.31808993 8.09896246 59.308965 6.14648438 59.30078125 C1.36967059 59.27877508 -3.40690806 59.24427331 -8.18359375 59.203125 C-8.18359375 56.893125 -8.18359375 54.583125 -8.18359375 52.203125 C-5.87359375 52.203125 -3.56359375 52.203125 -1.18359375 52.203125 C-1.18359375 37.683125 -1.18359375 23.163125 -1.18359375 8.203125 C-3.16359375 8.203125 -5.14359375 8.203125 -7.18359375 8.203125 C-8.18359375 7.203125 -8.18359375 7.203125 -8.30859375 4.203125 C-8.07714278 -1.3516984 -4.59715343 0.02762724 0 0 Z M6.81640625 8.203125 C6.81640625 13.813125 6.81640625 19.423125 6.81640625 25.203125 C10.56659815 25.2570415 14.31601586 25.29675973 18.06640625 25.328125 C19.12988281 25.34488281 20.19335938 25.36164063 21.2890625 25.37890625 C22.31386719 25.38535156 23.33867188 25.39179688 24.39453125 25.3984375 C25.80847168 25.41414795 25.80847168 25.41414795 27.25097656 25.43017578 C29.98192705 25.18847575 31.53561656 24.70390707 33.81640625 23.203125 C36.14176688 19.71508405 36.15098523 18.30171746 35.81640625 14.203125 C34.95871658 11.63005599 34.37403765 10.55489304 32.07714844 9.10595703 C29.36506432 8.02288067 27.31097771 7.97540754 24.39453125 8.0078125 C23.36972656 8.01425781 22.34492187 8.02070313 21.2890625 8.02734375 C19.69384766 8.05248047 19.69384766 8.05248047 18.06640625 8.078125 C16.98746094 8.08714844 15.90851562 8.09617187 14.796875 8.10546875 C12.13662376 8.1290108 9.47648676 8.16488103 6.81640625 8.203125 Z M6.81640625 33.203125 C6.81640625 39.473125 6.81640625 45.743125 6.81640625 52.203125 C10.37910998 52.25715084 13.94099148 52.2968125 17.50390625 52.328125 C18.51130859 52.34488281 19.51871094 52.36164063 20.55664062 52.37890625 C21.53310547 52.38535156 22.50957031 52.39179688 23.515625 52.3984375 C24.41112061 52.40891113 25.30661621 52.41938477 26.22924805 52.43017578 C29.82924879 52.11423724 32.67577346 51.05859959 35.56640625 48.890625 C37.24487441 46.62469299 37.61565882 45.01358896 37.81640625 42.203125 C36.95196271 38.26510443 35.23625897 36.20066648 31.84692383 34.02563477 C27.45418219 32.24624958 22.59876949 32.80399761 17.94140625 32.953125 C16.87148438 32.97117187 15.8015625 32.98921875 14.69921875 33.0078125 C12.07122713 33.05474092 9.44369904 33.12647788 6.81640625 33.203125 Z " fill="#1C1C1C" transform="translate(562.18359375,363.796875)"/>
<path d="M0 0 C4.6589823 -0.07487239 9.31760455 -0.12893832 13.97705078 -0.16479492 C15.55784211 -0.17976271 17.13859278 -0.20014437 18.71923828 -0.22631836 C39.50124792 -0.56151206 39.50124792 -0.56151206 47 5.375 C50.37810318 9.80876042 51.46352575 13.34199243 51.32421875 19 C50.78213681 22.34392713 49.15922354 24.47062385 47 27 C46.01 27.33 45.02 27.66 44 28 C44 28.66 44 29.32 44 30 C44.7425 30.165 45.485 30.33 46.25 30.5 C50.2832382 32.69994811 51.55923157 35.73191717 53 40 C53.63305877 45.2453441 52.86049421 48.56130208 50 53 C43.92801263 58.75240909 38.5411307 59.29009991 30.54296875 59.1953125 C29.64000565 59.1924826 28.73704254 59.18965271 27.80671692 59.18673706 C24.93350766 59.17557607 22.06061445 59.15047897 19.1875 59.125 C17.23503056 59.11496493 15.28255621 59.10584 13.33007812 59.09765625 C8.55326434 59.07565008 3.77668569 59.04114831 -1 59 C-1 56.69 -1 54.38 -1 52 C1.64 52 4.28 52 7 52 C7 37.48 7 22.96 7 8 C4.69 8 2.38 8 0 8 C0 5.36 0 2.72 0 0 Z M14 8 C14 13.61 14 19.22 14 25 C17.72960366 25.08101311 21.45744359 25.14051069 25.1875 25.1875 C26.77014648 25.22520508 26.77014648 25.22520508 28.38476562 25.26367188 C29.40634766 25.27333984 30.42792969 25.28300781 31.48046875 25.29296875 C32.41785889 25.3086792 33.35524902 25.32438965 34.32104492 25.34057617 C37.53256353 24.93229508 39.39378631 23.88830698 42 22 C43.52846661 18.94306678 43.23242445 16.37015453 43 13 C41.23984869 9.8149643 40.50109084 9.16703028 37 8 C35.22686149 7.91790208 33.45079225 7.89253706 31.67578125 7.90234375 C30.64775391 7.90556641 29.61972656 7.90878906 28.56054688 7.91210938 C26.95276367 7.92467773 26.95276367 7.92467773 25.3125 7.9375 C23.68731445 7.94426758 23.68731445 7.94426758 22.02929688 7.95117188 C19.35284106 7.96296243 16.67641361 7.98089792 14 8 Z M14 33 C14 39.27 14 45.54 14 52 C17.70877584 52.08114826 21.41576511 52.14057594 25.125 52.1875 C26.69507813 52.22520508 26.69507813 52.22520508 28.296875 52.26367188 C33.94303606 52.31727467 38.16361607 52.29131619 43 49 C45.15741221 46.37358513 44.9990559 44.94713058 44.9375 41.5 C43.82409602 37.3432918 42.57300136 36.26580574 39 34 C36.44276771 32.72138385 34.63262898 32.88663391 31.7734375 32.90234375 C30.2265625 32.90717773 30.2265625 32.90717773 28.6484375 32.91210938 C27.56820313 32.92048828 26.48796875 32.92886719 25.375 32.9375 C24.28703125 32.94201172 23.1990625 32.94652344 22.078125 32.95117188 C19.38539338 32.9629821 16.69268991 32.98091795 14 33 Z " fill="#161616" transform="translate(426,364)"/>
<path d="M0 0 C0.80824219 0.24621094 1.61648438 0.49242187 2.44921875 0.74609375 C5.24892873 1.84545631 6.35535125 2.44319312 8 5 C8.9886658 10.93929661 8.44634569 17.03012646 8 23 C4.7 23 1.4 23 -2 23 C-2 18.71 -2 14.42 -2 10 C-14.81210119 6.4245299 -25.18983839 5.25606683 -37.25 11.75 C-44.51767983 17.6962835 -49.02445364 24.4396457 -50 34 C-50.50306346 44.22895697 -48.51748835 52.84968018 -42 61 C-37.53057134 64.87776906 -32.75669713 67.52392381 -27 69 C-27 69.33 -27 69.66 -27 70 C-30.5196947 70.23413602 -34.03737584 70.37497976 -37.5625 70.5 C-39.0484668 70.60054687 -39.0484668 70.60054687 -40.56445312 70.703125 C-47.78373933 70.89499972 -47.78373933 70.89499972 -51.17578125 68.39892578 C-59.53852593 59.19068302 -62.44336774 47.21276582 -62 35 C-60.61684767 22.70970354 -56.20383679 13.25648705 -47.203125 4.75390625 C-33.88971534 -5.84488974 -15.12171264 -7.20663203 0 0 Z " fill="#D41919" transform="translate(265,355)"/>
<path d="M0 0 C0.74886475 0.00523682 1.49772949 0.01047363 2.26928711 0.01586914 C3.07817383 0.0190918 3.88706055 0.02231445 4.72045898 0.02563477 C5.5705957 0.03401367 6.42073242 0.04239258 7.29663086 0.05102539 C8.15063477 0.05553711 9.00463867 0.06004883 9.88452148 0.06469727 C12.00108749 0.07652166 14.11761771 0.0944577 16.23413086 0.11352539 C20.06313659 8.14612165 23.74209708 16.22132783 27.20678711 24.41821289 C28.22593841 26.80310845 29.24700146 29.18717733 30.26855469 31.57104492 C30.9632472 33.20458689 31.65023667 34.84142295 32.33007812 36.48120117 C33.33009123 38.8866317 34.35901292 41.27778697 35.39428711 43.66821289 C35.83986717 44.77107132 35.83986717 44.77107132 36.29444885 45.89620972 C37.24958474 48.19663203 37.24958474 48.19663203 39.23413086 51.11352539 C42.35159412 52.20313913 42.35159412 52.20313913 45.23413086 52.11352539 C45.23413086 54.42352539 45.23413086 56.73352539 45.23413086 59.11352539 C37.97413086 59.11352539 30.71413086 59.11352539 23.23413086 59.11352539 C23.23413086 56.80352539 23.23413086 54.49352539 23.23413086 52.11352539 C25.54413086 52.11352539 27.85413086 52.11352539 30.23413086 52.11352539 C28.91413086 49.14352539 27.59413086 46.17352539 26.23413086 43.11352539 C16.66413086 43.11352539 7.09413086 43.11352539 -2.76586914 43.11352539 C-4.08586914 46.08352539 -5.40586914 49.05352539 -6.76586914 52.11352539 C-4.78586914 52.11352539 -2.80586914 52.11352539 -0.76586914 52.11352539 C-0.76586914 54.42352539 -0.76586914 56.73352539 -0.76586914 59.11352539 C-7.69586914 59.11352539 -14.62586914 59.11352539 -21.76586914 59.11352539 C-21.76586914 56.80352539 -21.76586914 54.49352539 -21.76586914 52.11352539 C-19.78586914 52.11352539 -17.80586914 52.11352539 -15.76586914 52.11352539 C-15.51659668 51.30254395 -15.26732422 50.4915625 -15.01049805 49.65600586 C-13.53338767 45.45183334 -11.72757004 41.47227566 -9.85180664 37.43383789 C-9.47730377 36.62107391 -9.1028009 35.80830994 -8.71694946 34.97091675 C-7.52786598 32.39208245 -6.3344379 29.81528634 -5.14086914 27.23852539 C-4.33068496 25.48345014 -3.52078605 23.72824317 -2.71118164 21.97290039 C-0.73270981 17.68491027 1.2496592 13.3987419 3.23413086 9.11352539 C1.25413086 8.45352539 -0.72586914 7.79352539 -2.76586914 7.11352539 C-2.8084127 5.11397793 -2.80667697 3.11310903 -2.76586914 1.11352539 C-1.76586914 0.11352539 -1.76586914 0.11352539 0 0 Z M11.23413086 9.11352539 C9.39784004 13.25805509 7.56559344 17.4043601 5.73413086 21.55102539 C5.20948242 22.7350293 4.68483398 23.9190332 4.14428711 25.13891602 C3.64799805 26.26362305 3.15170898 27.38833008 2.64038086 28.54711914 C2.17954102 29.58924561 1.71870117 30.63137207 1.24389648 31.70507812 C0.16968881 33.83196968 0.16968881 33.83196968 0.23413086 35.11352539 C7.82413086 35.11352539 15.41413086 35.11352539 23.23413086 35.11352539 C21.97600586 31.93727539 20.71788086 28.76102539 19.42163086 25.48852539 C19.03128662 24.49900879 18.64094238 23.50949219 18.23876953 22.48999023 C16.41854065 17.91793019 14.5274406 13.46864357 12.23413086 9.11352539 C11.90413086 9.11352539 11.57413086 9.11352539 11.23413086 9.11352539 Z " fill="#161616" transform="translate(633.765869140625,363.886474609375)"/>
<path d="M0 0 C5.94 0 11.88 0 18 0 C23.12848939 10.05289255 27.83087477 20.20765636 32.3125 30.5625 C32.93782211 31.99819019 33.56347198 33.43373766 34.18945312 34.86914062 C38.86954849 45.62077006 38.86954849 45.62077006 39.99291992 48.88647461 C40.32525635 49.58393799 40.65759277 50.28140137 41 51 C44.05272465 51.89830839 44.05272465 51.89830839 47 52 C47 54.31 47 56.62 47 59 C40.07 59 33.14 59 26 59 C26 56.69 26 54.38 26 52 C27.98 52 29.96 52 32 52 C31.505 50.906875 31.01 49.81375 30.5 48.6875 C29 45 29 45 29 42 C19.1 42.33 9.2 42.66 -1 43 C-2.32 45.97 -3.64 48.94 -5 52 C-2.69 52 -0.38 52 2 52 C2 54.31 2 56.62 2 59 C-5.26 59 -12.52 59 -20 59 C-20 56.69 -20 54.38 -20 52 C-19.09733398 52.00032227 -18.19466797 52.00064453 -17.26464844 52.00097656 C-14.05031565 51.35295073 -14.05031565 51.35295073 -12.81750488 49.50866699 C-11.68530187 47.37164558 -10.71043399 45.21073013 -9.765625 42.984375 C-9.40152527 42.17639465 -9.03742554 41.36841431 -8.66229248 40.53594971 C-7.5030535 37.94971528 -6.37650852 35.35063362 -5.25 32.75 C-4.4773474 31.01339287 -3.70263039 29.27770267 -2.92578125 27.54296875 C1.18194659 18.33276568 1.18194659 18.33276568 5 9 C2.525 8.505 2.525 8.505 0 8 C0 5.36 0 2.72 0 0 Z M13 10 C11.1636275 13.9777711 9.33141138 17.9574426 7.5 21.9375 C6.97535156 23.07380859 6.45070313 24.21011719 5.91015625 25.38085938 C5.41386719 26.46044922 4.91757812 27.54003906 4.40625 28.65234375 C3.71499023 30.15269165 3.71499023 30.15269165 3.00976562 31.68334961 C1.93340555 33.73159207 1.93340555 33.73159207 2 35 C9.59 35 17.18 35 25 35 C22.79277659 28.18671095 22.79277659 28.18671095 20.17578125 21.62109375 C19.86962891 20.92822266 19.56347656 20.23535156 19.24804688 19.52148438 C18.78495117 18.48991211 18.78495117 18.48991211 18.3125 17.4375 C17.99216797 16.71498047 17.67183594 15.99246094 17.34179688 15.24804688 C16.56487057 13.49706371 15.78297505 11.74828676 15 10 C14.34 10 13.68 10 13 10 Z " fill="#151515" transform="translate(503,364)"/>
<path d="M0 0 C5.94 0 11.88 0 18 0 C23.30204666 10.42656943 28.31664131 20.91126252 33.01220703 31.62353516 C34.02185312 33.92480957 35.03989319 36.2222526 36.05859375 38.51953125 C36.70621994 39.98936719 37.35337454 41.45941103 38 42.9296875 C38.30301025 43.61288055 38.60602051 44.29607361 38.91821289 44.99996948 C41 49.76976414 41 49.76976414 41 52 C42.98 52 44.96 52 47 52 C47 54.31 47 56.62 47 59 C40.07 59 33.14 59 26 59 C26 56.69 26 54.38 26 52 C28.97 51.505 28.97 51.505 32 51 C31.01 48.03 30.02 45.06 29 42 C19.1 42 9.2 42 -1 42 C-1.99 44.97 -2.98 47.94 -4 51 C-2.02 51.33 -0.04 51.66 2 52 C2 54.31 2 56.62 2 59 C-4.93 59 -11.86 59 -19 59 C-19 56.69 -19 54.38 -19 52 C-17.87368164 51.96011963 -17.87368164 51.96011963 -16.72460938 51.91943359 C-13.7193655 51.21942416 -13.7193655 51.21942416 -12.13476562 48.12353516 C-11.539422 46.8541941 -10.96450451 45.57514673 -10.40625 44.2890625 C-10.09224243 43.60629242 -9.77823486 42.92352234 -9.45471191 42.22006226 C-8.4520864 40.02927255 -7.4758711 37.82781818 -6.5 35.625 C-5.84416091 34.18021077 -5.18662542 32.73619032 -4.52734375 31.29296875 C-2.95317786 27.8372012 -1.39906325 24.37290005 0.14794922 20.90490723 C1.4094 18.08471534 2.68862985 15.27269437 3.96875 12.4609375 C4.36513672 11.59001465 4.76152344 10.7190918 5.16992188 9.82177734 C5.44384766 9.22059082 5.71777344 8.6194043 6 8 C4.02 8 2.04 8 0 8 C0 5.36 0 2.72 0 0 Z M14 9 C6.60245602 21.4538176 6.60245602 21.4538176 3 35 C10.26 35 17.52 35 25 35 C22.74715771 28.11466677 22.74715771 28.11466677 20.17578125 21.40234375 C19.71655273 20.29536133 19.71655273 20.29536133 19.24804688 19.16601562 C18.78495117 18.06290039 18.78495117 18.06290039 18.3125 16.9375 C17.99216797 16.16728516 17.67183594 15.39707031 17.34179688 14.60351562 C16.56400964 12.73450451 15.7824152 10.86707847 15 9 C14.67 9 14.34 9 14 9 Z " fill="#151515" transform="translate(374,364)"/>
<path d="M0 0 C1.56047445 0.00015913 3.12095416 0.00585397 4.68139648 0.01586914 C5.91115456 0.01799156 5.91115456 0.01799156 7.16575623 0.02015686 C9.79470406 0.0257725 12.42356797 0.0383276 15.05249023 0.05102539 C16.8304838 0.05603838 18.60847869 0.06060163 20.38647461 0.06469727 C24.75434569 0.07574701 29.12215371 0.09302208 33.48999023 0.11352539 C33.58324391 7.48569392 33.65403267 14.85773238 33.69723892 22.23037434 C33.71799055 25.65493626 33.74607526 29.07909056 33.79174805 32.50341797 C33.84408621 36.45282882 33.86303818 40.40208268 33.88061523 44.35180664 C33.90126038 45.5637117 33.92190552 46.77561676 33.94317627 48.02424622 C33.94535738 56.40128812 33.24359059 64.8554601 27.48254395 71.39076233 C25.14710926 73.40998047 24.19726262 73.59087603 21.16186523 73.50415039 C20.36264648 73.49125977 19.56342773 73.47836914 18.73999023 73.46508789 C17.91499023 73.43157227 17.08999023 73.39805664 16.23999023 73.36352539 C15.39952148 73.34547852 14.55905273 73.32743164 13.69311523 73.30883789 C11.62491629 73.26183337 9.55730583 73.19009263 7.48999023 73.11352539 C9.02853939 72.08782595 10.57247196 71.06587354 12.17358398 70.14086914 C17.4603766 66.85575747 19.68714602 63.01638629 21.48999023 57.11352539 C22.55969222 51.92102401 22.70450029 46.83797559 22.80639648 41.55883789 C22.82717758 40.65728973 22.84795868 39.75574158 22.86936951 38.82687378 C22.93443603 35.96416399 22.99354937 33.1013672 23.05249023 30.23852539 C23.09571631 28.29059995 23.13933187 26.34268311 23.18334961 24.39477539 C23.29007312 19.6344465 23.39145988 14.87403063 23.48999023 10.11352539 C22.67731689 10.11876221 21.86464355 10.12399902 21.02734375 10.12939453 C17.36906701 10.15009533 13.71080256 10.16316342 10.05249023 10.17602539 C8.7730957 10.1844043 7.49370117 10.1927832 6.17553711 10.20141602 C4.353125 10.20625 4.353125 10.20625 2.49389648 10.21118164 C1.36798096 10.21641846 0.24206543 10.22165527 -0.91796875 10.22705078 C-3.51000977 10.11352539 -3.51000977 10.11352539 -4.51000977 9.11352539 C-4.64282227 7.30102539 -4.64282227 7.30102539 -4.63500977 5.11352539 C-4.63758789 4.39165039 -4.64016602 3.66977539 -4.64282227 2.92602539 C-4.39652333 -0.43523072 -3.47668591 0.11244759 0 0 Z " fill="#D31414" transform="translate(153.510009765625,351.886474609375)"/>
<path d="M0 0 C0.33 0 0.66 0 1 0 C1 25.08 1 50.16 1 76 C-2.63 76 -6.26 76 -10 76 C-9.00000106 69.34698834 -7.96171143 62.70389958 -6.81640625 56.07421875 C-3.63046743 37.43025068 -1.51129567 18.85261357 0 0 Z " fill="#FFFFFF" transform="translate(799,724)"/>
<path d="M0 0 C1.37478516 0.01740234 1.37478516 0.01740234 2.77734375 0.03515625 C3.69644531 0.04417969 4.61554688 0.05320312 5.5625 0.0625 C6.27277344 0.07410156 6.98304688 0.08570313 7.71484375 0.09765625 C7.87339844 0.95488281 8.03195313 1.81210937 8.1953125 2.6953125 C9.61281898 9.64187739 10.75709693 14.9145573 15.71484375 20.09765625 C18.03821898 21.43564989 20.14974398 22.24262299 22.71484375 23.09765625 C22.71484375 23.42765625 22.71484375 23.75765625 22.71484375 24.09765625 C19.79662912 24.23275878 16.88466723 24.33178675 13.96484375 24.41015625 C13.13984375 24.45205078 12.31484375 24.49394531 11.46484375 24.53710938 C5.32329573 24.66093091 5.32329573 24.66093091 2.2421875 21.80859375 C-1.48121047 15.19980042 -3.22554265 8.74310028 -3.28515625 1.09765625 C-2.28515625 0.09765625 -2.28515625 0.09765625 0 0 Z " fill="#D62424" transform="translate(124.28515625,400.90234375)"/>
<path d="M0 0 C3.36591866 1.44253657 5.51047079 3.33264727 8 6 C7.67 6.99 7.34 7.98 7 9 C-0.26 9 -7.52 9 -15 9 C-11.56448701 6.70965801 -7.99166802 5.00773438 -4.27734375 3.21875 C-1.88877494 2.08197469 -1.88877494 2.08197469 0 0 Z " fill="#DA3A3A" transform="translate(268,416)"/>
<path d="M0 0 C3.625 0.375 3.625 0.375 7 1 C8.33157895 6.44736842 8.33157895 6.44736842 6.875 8.875 C4.40522151 10.3568671 2.83386167 10.3633156 0 10 C-2 8 -2 8 -2.25 5 C-2 2 -2 2 0 0 Z " fill="#1C1C1C" transform="translate(304,384)"/>
</svg>
